PathFileType	4	(X/Y/Z)	D:\TRACE\v60_Jaco2_6-2-23\BothDRS_Motion2_8-v60.trc
DataRate	CameraRate	NumFrames	NumMarkers	Units	OrigDataRate	OrigDataStartFrame	OrigNumFrames
100.00	100.00	      27	9	mm	100.00	5626	      7500
Frame#	Time	front left toe			Front right toe			aft left toe			aft right toe			Arm			FL body			FR body			AL Body			AR Body			
		X1	Y1	Z1	X2	Y2	Z2	X3	Y3	Z3	X4	Y4	Z4	X5	Y5	Z5	X6	Y6	Z6	X7	Y7	Z7	X8	Y8	Z8	X9	Y9	Z9	

5626	56.250	-274.87582	54.83730	-245.09254	124.04607	-11.13618	-293.06354	-180.82506	42.82624	368.13757	154.00075	107.32919	343.91141	-7.37751	1043.97314	-686.40936	-170.53439	540.03851	-397.17233	-10.72983	541.98236	-414.51651	-71.28901	602.95306	540.82159	84.49705	599.45618	526.68213	
5627	56.260	-277.10336	45.88876	-246.69469	124.60674	-11.08074	-292.92273	-180.02312	42.40888	368.20279	150.21082	95.92337	343.82846	-8.77043	1043.78674	-687.56250	-170.61012	539.87848	-397.45410	-10.71937	541.90106	-414.46463	-72.80081	602.95453	540.77264	83.61830	599.32465	527.45624	
5628	56.270	-279.40710	37.21317	-247.81679	125.18382	-10.89283	-292.75525	-179.24013	42.01596	368.18323	146.83344	85.72795	343.28561	-10.12278	1043.55493	-688.50409	-170.68422	539.76495	-397.55518	-10.92448	541.69617	-414.43454	-74.19819	603.07806	540.73944	81.78973	599.16394	526.87408	
5629	56.280	-281.21017	28.40109	-248.52411	126.10286	-10.69145	-292.68362	-178.29207	41.51839	368.23590	144.02795	75.25662	343.19055	-11.05857	1043.95398	-689.41962	-170.96005	539.68396	-397.98590	-11.11083	541.45313	-414.47491	-75.48981	603.18488	540.72028	80.58932	599.25415	526.95844	
5630	56.290	-283.15936	20.23786	-249.08316	127.01823	-10.45359	-292.56711	-177.76727	41.61547	368.20929	141.03865	66.14111	342.61414	-11.91219	1043.82886	-690.36963	-170.42569	539.20020	-397.81757	-12.05254	541.13312	-413.80768	-77.10057	603.18280	540.53113	78.93211	599.26062	526.80688	
5631	56.300	-285.06406	12.38584	-249.12334	127.75293	-10.16600	-292.41306	-177.17679	41.47925	368.25800	138.82582	58.10030	342.45071	-12.34405	1044.00635	-691.39478	-170.71538	539.39545	-398.08569	-12.03144	541.19995	-414.34378	-78.51160	603.05481	540.19550	77.37676	599.06543	526.90106	
5632	56.310	-286.62631	5.29482	-248.80882	128.58231	-9.76106	-292.33545	-176.56358	41.29453	368.10745	137.29782	51.36400	342.12827	-12.91731	1043.97217	-692.21289	-171.68390	539.62708	-398.65216	-12.26724	541.04297	-414.41464	-80.17069	603.01569	540.26215	76.06903	598.95056	526.85211	
5633	56.320	-288.18433	-0.23747	-249.14549	129.30589	-9.36185	-292.07663	-174.30165	39.62834	368.52762	135.51585	45.86971	341.37900	-13.22399	1043.93933	-693.17822	-171.96049	539.16144	-399.08942	-12.48170	540.76025	-414.61609	-82.11774	602.78156	540.04919	74.09208	598.58691	526.98413	
5634	56.330	-288.44614	-3.04409	-250.87758	129.93416	-9.35352	-291.99677	-173.43184	38.97266	368.61154	136.82103	46.12008	338.59232	-13.42712	1043.67651	-694.22827	-172.42567	538.86078	-399.70239	-12.54736	540.43811	-414.75150	-83.56148	602.55402	539.70850	72.24330	598.58356	526.72955	
5635	56.340	-288.62918	-5.54409	-251.51666	130.76398	-9.18648	-291.65891	-172.72231	38.92445	368.76804	137.89569	43.12315	339.25113	-14.14859	1043.55481	-695.53137	-171.57416	538.52631	-399.58078	-12.62286	540.46466	-414.82489	-85.72906	603.03339	539.31555	70.17572	599.07355	527.03223	
5636	56.350	-287.98566	-4.08706	-251.08926	131.78410	-8.06448	-291.51971	-171.62596	38.95804	368.65414	139.36516	44.73284	339.69586	-14.93000	1043.60144	-697.01422	-171.39804	539.06476	-399.98108	-11.99041	540.81927	-414.94693	-88.03481	604.26807	539.03101	68.10650	600.36841	526.95618	
5637	56.360	-287.23370	-5.46099	-250.56682	130.56403	-4.83383	-290.86346	-170.85860	42.50420	368.89120	139.77811	43.46817	340.07269	-15.48777	1043.72681	-698.55511	-171.48668	540.14063	-400.46667	-11.79195	541.80182	-414.93924	-89.93917	605.10461	538.94971	65.96444	601.45166	527.16351	
5638	56.370	-286.48782	-4.62068	-251.28860	127.29721	-0.86841	-286.74158	-168.07202	45.93747	371.79596	140.04863	43.26566	339.91486	-16.20678	1043.92712	-699.90771	-171.44617	540.98224	-401.28317	-11.26302	542.54913	-415.02530	-91.98726	605.81927	538.70563	64.31004	601.99579	527.37378	
5639	56.380	-285.02405	-4.49503	-251.09189	123.45658	4.93851	-282.62625	-164.72745	53.37929	374.04318	141.70404	43.91256	340.04550	-16.82272	1044.33081	-701.00494	-170.98660	541.20746	-401.52771	-10.68717	542.91870	-415.12161	-93.94883	606.44189	538.65851	62.28054	602.70502	527.39020	
5640	56.390	-284.28900	-4.99452	-251.27982	121.21723	14.49283	-280.85123	-164.26083	63.97162	373.52017	142.17062	43.16162	340.33539	-17.12879	1045.22339	-701.53748	-170.74171	541.23450	-401.74155	-10.41651	542.83368	-415.07806	-95.05346	606.99005	538.44006	60.75846	603.32666	527.50885	
5641	56.400	-283.14767	-4.60823	-250.90129	119.57336	25.93514	-280.47324	-164.54044	74.91675	372.71823	142.63527	42.76848	340.42200	-17.48138	1046.13245	-702.17493	-170.86768	541.18628	-401.74680	-10.48805	542.69830	-414.98489	-96.61993	607.65936	538.44019	59.79092	603.84631	527.69464	
5642	56.410	-282.54858	-4.55234	-250.87965	119.56380	38.03004	-280.93060	-171.46811	89.44627	370.86044	143.75459	42.69855	340.72247	-17.74360	1046.44312	-703.01044	-171.04132	541.22382	-401.63867	-10.79858	542.79480	-414.76126	-96.94129	607.67535	538.60693	59.19860	604.11804	528.13831	
5643	56.420	-281.42563	-4.42321	-250.41757	120.16074	51.44783	-281.76431	-177.58949	102.11083	369.32654	144.66769	42.15878	341.06348	-18.07693	1046.24097	-703.69659	-171.18083	541.45282	-401.46976	-11.10392	543.11432	-414.49866	-97.24130	607.44739	538.77148	58.71877	603.78259	528.17871	
5644	56.430	-280.64136	-4.43433	-250.27208	120.24327	64.46365	-282.52975	-184.60788	114.85095	368.23880	146.47902	41.74104	340.91489	-18.88247	1045.79114	-703.99884	-171.26799	541.58600	-401.38635	-11.32995	543.30621	-414.39355	-97.51477	606.90210	538.65100	58.53897	603.10632	528.45630	
5645	56.440	-279.96310	-4.06526	-250.04958	119.38186	76.60298	-283.44177	-190.89528	126.82839	366.74396	147.13448	41.74562	341.17419	-20.06922	1045.62720	-704.32825	-171.39557	541.67743	-401.14093	-12.06780	543.23669	-413.84491	-97.77061	606.52600	539.12115	58.24302	602.67792	528.71185	
5646	56.450	-278.91025	-4.00516	-250.08165	118.64084	88.26305	-283.77643	-196.69585	138.56616	365.82059	147.95345	41.17909	341.46692	-21.08104	1045.94446	-704.29907	-171.49754	541.99243	-400.77411	-11.85358	543.07025	-413.35394	-97.88346	606.17755	539.57208	58.11214	602.06030	529.30023	
5647	56.460	-277.78702	-3.82463	-249.78906	117.18774	98.82800	-284.00577	-201.81248	150.10953	364.89938	148.98633	40.62992	341.62720	-22.23048	1046.57861	-704.33154	-170.88846	542.10889	-400.13428	-11.63428	543.16016	-412.85123	-97.74221	606.07849	539.96198	58.24049	601.68787	529.72638	
5648	56.470	-277.02441	-3.00995	-249.56631	113.44332	107.80056	-284.56824	-205.42412	159.95024	364.41324	149.94037	40.27605	341.79562	-22.81176	1047.19141	-704.41125	-170.82478	542.86292	-399.68323	-11.77195	543.43005	-412.02097	-97.46433	605.96075	540.42285	58.90297	601.25983	530.76019	
5649	56.480	-275.91330	-2.79208	-249.34109	110.41940	113.74659	-284.11371	-209.06836	167.75230	364.19797	151.53082	39.80711	342.16180	-22.84380	1047.81042	-704.25702	-170.85837	543.48889	-399.09875	-11.52977	543.69897	-412.09866	-97.11000	605.76099	540.56738	58.60106	600.95123	530.64197	
5650	56.490	-274.83719	-2.60496	-249.15025	107.32275	117.30025	-282.92877	-212.88808	171.42560	365.04950	152.41202	39.39966	342.20499	-22.49415	1048.09619	-703.82532	-171.34091	543.79553	-398.66129	-11.13396	543.84326	-411.65918	-97.53004	605.63519	541.11371	58.92836	600.62531	531.17017	
5651	56.500	-273.96097	-2.30636	-248.94633	104.84464	118.08263	-281.88007	-217.31706	173.13567	365.91202	153.41006	38.82687	342.54440	-22.01817	1048.51746	-703.46124	-171.32195	543.95209	-398.06558	-11.35327	543.91705	-410.90973	-96.83463	605.72961	542.28259	59.40944	600.34595	532.10559	
5652	56.510	-272.86591	-2.07177	-248.60518	102.86777	116.10387	-280.02402	-221.73293	171.71129	366.99417	154.36613	38.34747	342.54153	-21.38284	1049.00000	-703.06830	-170.83813	544.25476	-396.67526	-11.92139	543.99280	-409.89676	-96.15864	605.78613	542.63751	60.05157	600.16248	532.63629	
